<?xml version="1.0" encoding="UTF-8" standalone="no"?>
<svg
   xmlns:dc="http://purl.org/dc/elements/1.1/"
   xmlns:cc="http://creativecommons.org/ns#"
   xmlns:rdf="http://www.w3.org/1999/02/22-rdf-syntax-ns#"
   xmlns:svg="http://www.w3.org/2000/svg"
   xmlns="http://www.w3.org/2000/svg"
   xmlns:sodipodi="http://sodipodi.sourceforge.net/DTD/sodipodi-0.dtd"
   xmlns:inkscape="http://www.inkscape.org/namespaces/inkscape"
   width="471.14725mm"
   height="141.68571mm"
   viewBox="0 0 471.14724 141.68572"
   version="1.1"
   id="svg8"
   inkscape:version="1.0.2 (e86c870879, 2021-01-15, custom)"
   sodipodi:docname="froehlich.svg">
  <defs
     id="defs2">
    <inkscape:path-effect
       effect="powerstroke"
       id="path-effect929"
       is_visible="true"
       lpeversion="1"
       offset_points="1.2065429,0.66441126"
       sort_points="true"
       interpolator_type="CentripetalCatmullRom"
       interpolator_beta="0.75"
       start_linecap_type="round"
       linejoin_type="spiro"
       miter_limit="4"
       scale_width="1"
       end_linecap_type="round" />
    <inkscape:path-effect
       effect="simplify"
       id="path-effect927"
       is_visible="true"
       lpeversion="1"
       steps="1"
       threshold="0.005905399"
       smooth_angles="0"
       helper_size="0"
       simplify_individual_paths="false"
       simplify_just_coalesce="false"
       step="1" />
    <inkscape:path-effect
       effect="powerstroke"
       id="path-effect922"
       is_visible="true"
       lpeversion="1"
       offset_points="1.3650895,0.66441126"
       sort_points="true"
       interpolator_type="CentripetalCatmullRom"
       interpolator_beta="0.75"
       start_linecap_type="round"
       linejoin_type="spiro"
       miter_limit="4"
       scale_width="1"
       end_linecap_type="round" />
    <inkscape:path-effect
       effect="simplify"
       id="path-effect920"
       is_visible="true"
       lpeversion="1"
       steps="1"
       threshold="0.005905399"
       smooth_angles="0"
       helper_size="0"
       simplify_individual_paths="false"
       simplify_just_coalesce="false"
       step="1" />
    <inkscape:path-effect
       effect="spiro"
       id="path-effect38"
       is_visible="true"
       lpeversion="1" />
  </defs>
  <sodipodi:namedview
     id="base"
     pagecolor="#ffffff"
     bordercolor="#666666"
     borderopacity="1.0"
     inkscape:pageopacity="0.0"
     inkscape:pageshadow="2"
     inkscape:zoom="0.24748737"
     inkscape:cx="990.42917"
     inkscape:cy="463.4563"
     inkscape:document-units="mm"
     inkscape:current-layer="layer2"
     inkscape:document-rotation="0"
     showgrid="false"
     inkscape:window-width="1497"
     inkscape:window-height="1048"
     inkscape:window-x="2266"
     inkscape:window-y="0"
     inkscape:window-maximized="0" />
  <metadata
     id="metadata5">
    <rdf:RDF>
      <cc:Work
         rdf:about="">
        <dc:format>image/svg+xml</dc:format>
        <dc:type
           rdf:resource="http://purl.org/dc/dcmitype/StillImage" />
        <dc:title />
      </cc:Work>
    </rdf:RDF>
  </metadata>
  <g
     inkscape:groupmode="layer"
     id="layer2"
     inkscape:label="Layer 2"
     style="display:inline"
     transform="translate(15.476275,-50.732422)">
    <path
       style="fill:#000000;fill-opacity:1;stroke:none;stroke-width:0.264583px;stroke-linecap:butt;stroke-linejoin:miter;stroke-opacity:1"
       d="m -14.943966,154.88797 c 0.675996,-0.54727 1.453148,-1.00523 1.985355,-1.69315 0.21332,-0.27573 0.281467,-0.63954 0.457032,-0.94072 0.933591,-1.6016 2.086594,-3.06501 3.1552468,-4.57984 1.1658099,-1.65255 2.3227889,-3.31277 3.5523191,-4.91846 0.932744,-1.21812 1.7358541,-2.57463 2.8994175,-3.57461 1.3618468,-1.17037 3.0618498,-1.88117 4.6464553,-2.72581 4.0359023,-2.15127 8.1485646,-4.17335 12.3609813,-5.95437 5.417659,-2.2906 11.146561,-3.79093 16.56944,-6.06915 2.691912,-1.1309 5.523737,-2.08115 7.908871,-3.76532 2.238662,-1.58076 4.026951,-3.73529 5.814066,-5.81294 1.856191,-2.15794 3.391637,-4.57234 5.066937,-6.87355 1.790718,-2.45976 3.703307,-4.83874 5.328098,-7.41111 1.35284,-2.14182 2.702964,-4.314097 3.666148,-6.657137 0.715402,-1.740287 1.194865,-3.580802 1.541837,-5.430129 0.272589,-1.452878 0.461053,-2.937408 0.417434,-4.414992 -0.01858,-0.629686 -0.06773,-1.277735 -0.288571,-1.867717 -0.119183,-0.318401 -0.308404,-0.617762 -0.544403,-0.862482 -0.188721,-0.195696 -0.424827,-0.350099 -0.67346,-0.460077 -0.419914,-0.185739 -0.883741,-0.26794 -1.34007,-0.318836 -0.464839,-0.05184 -0.938183,-0.03535 -1.403072,0.01605 -0.67728,0.07488 -1.349946,0.218843 -1.999823,0.423723 -0.781053,0.246235 -1.556567,0.543571 -2.260983,0.961272 -0.846845,0.502156 -1.641126,1.115559 -2.317897,1.830601 -1.151524,1.216642 -1.964183,2.715213 -2.893328,4.109098 -1.206159,1.809459 -2.380335,3.642149 -3.478651,5.519025 -1.364652,2.332013 -2.636517,4.718668 -3.861257,7.127101 -1.146821,2.25521 -2.279217,4.52204 -3.262985,6.853 -1.307587,3.09821 -2.387314,6.28851 -3.500542,9.46176 -1.154181,3.28997 -2.32252,6.57893 -3.294773,9.92717 -1.348273,4.64318 -2.490974,9.34729 -3.514814,14.07261 -1.153425,5.3234 -2.23108,10.67264 -2.957467,16.07091 -0.429725,3.19358 -0.600775,6.41726 -0.825735,9.63175 -0.157436,2.2496 -0.391438,4.50041 -0.36662,6.75539 0.01315,1.19667 0.02931,2.40822 0.273412,3.57982 0.183796,0.88227 0.42318,1.78147 0.887699,2.55375 0.406414,0.67566 0.958487,1.28875 1.609779,1.73319 0.531407,0.36262 1.167813,0.56724 1.795686,0.70749 0.512707,0.11452 1.053867,0.18307 1.572778,0.10107 0.547595,-0.0865 1.068245,-0.33186 1.546064,-0.61297 0.49167,-0.28928 0.933982,-0.66802 1.324077,-1.08424 0.566616,-0.60457 1.007419,-1.3188 1.447043,-2.02114 1.528856,-2.44248 2.965622,-4.95907 4.123179,-7.59786 1.177239,-2.68364 2.158474,-5.46945 2.845356,-8.31831 0.507246,-2.10382 0.786148,-4.26611 0.929098,-6.42547 0.08386,-1.26676 0.150453,-2.55371 -0.0434,-3.80835 -0.170042,-1.10057 -0.462586,-2.20606 -0.971933,-3.19637 -0.713084,-1.38645 -1.758903,-2.59471 -2.848786,-3.70954 -0.68578,-0.70149 -1.522749,-1.23733 -2.292967,-1.84488 -0.535278,-0.42224 -0.999061,-0.96525 -1.617979,-1.25117 -0.559236,-0.25835 -1.434826,0.10943 -1.808521,-0.38032 -0.189636,-0.24853 -0.04167,-0.63924 0.05616,-0.93615 0.10051,-0.30509 0.258944,-0.6284 0.525369,-0.80785 0.206538,-0.1391 0.485457,-0.11915 0.73342,-0.142 1.17567,-0.10837 2.361351,0.0452 3.541854,0.0265 0.802014,-0.013 1.617113,0.0588 2.404508,-0.0942 1.203096,-0.23375 2.312426,-0.81348 3.460572,-1.24224 0.713084,-0.26629 2.12888,-0.82612 2.12888,-0.82612 l 1.164756,2.52596 c 0,0 -4.119622,0.76444 -5.454303,2.20044 -0.0959,0.10318 -0.151794,0.26339 -0.129057,0.4024 0.141673,0.86621 1.011834,1.43587 1.561066,2.12052 0.622815,0.77635 1.4437,1.40075 1.963467,2.24956 0.611268,0.99823 1.048689,2.11764 1.306759,3.25937 0.378617,1.67503 0.359453,3.42458 0.325884,5.14156 -0.03069,1.56891 -0.194614,3.14017 -0.481205,4.683 -0.283281,1.52501 -0.757065,3.01004 -1.218432,4.49093 -0.655992,2.10562 -1.34565,4.20664 -2.200828,6.23951 -0.764748,1.81791 -1.669799,3.5763 -2.61237,5.30869 -0.711992,1.3086 -1.442638,2.6132 -2.295052,3.83499 -0.760375,1.08987 -1.488534,2.24497 -2.50387,3.10234 -0.852893,0.7202 -1.880914,1.23293 -2.921501,1.63701 -0.95708,0.37165 -1.972956,0.66465 -2.998971,0.70239 -1.331915,0.0491 -2.701069,-0.15672 -3.949584,-0.6232 -0.96651,-0.36112 -1.842705,-0.96761 -2.624745,-1.64063 -1.133242,-0.97526 -2.105118,-2.15169 -2.917604,-3.40677 -0.898821,-1.38845 -1.545767,-2.93548 -2.117173,-4.48763 -0.675581,-1.83514 -1.127446,-3.74968 -1.534609,-5.66235 -0.343227,-1.61234 -0.558344,-3.25048 -0.762626,-4.88625 -0.182079,-1.45798 -0.324048,-2.92193 -0.412223,-4.38859 -0.106282,-1.7679 -0.150387,-3.54035 -0.140456,-5.31142 0.01068,-1.90633 0.0331,-3.81737 0.215261,-5.71501 0.168291,-1.75315 0.511425,-3.48546 0.809176,-5.22132 0.211198,-1.23126 0.441815,-2.45937 0.693064,-3.68309 0.372687,-1.81518 0.779727,-3.6234 1.207772,-5.42632 0.824881,-3.47438 1.620974,-6.95925 2.621312,-10.38725 0.765568,-2.62346 1.582116,-5.23821 2.584193,-7.78076 0.993656,-2.52118 2.15616,-4.97655 3.39052,-7.38903 0.927798,-1.81333 1.984962,-3.55782 3.013246,-5.31611 1.00432,-1.71731 1.989597,-3.44829 3.082345,-5.110724 1.243036,-1.891094 2.599529,-3.70572 3.946343,-5.524357 1.180003,-1.593389 2.329443,-3.214765 3.621417,-4.718794 1.118621,-1.302225 2.307802,-2.547938 3.566025,-3.715834 1.195673,-1.109839 2.453495,-2.157925 3.773318,-3.116804 1.30239,-0.946212 2.636669,-1.869274 4.075796,-2.590698 1.093626,-0.548226 2.259931,-0.948825 3.430676,-1.303687 1.003381,-0.304134 2.027602,-0.556693 3.065784,-0.703156 1.015446,-0.143256 2.051123,-0.267218 3.071877,-0.168652 0.779718,0.07529 1.545765,0.29842 2.278498,0.575428 0.801477,0.302995 1.664414,0.586311 2.285349,1.176745 0.426424,0.405479 0.657109,0.984747 0.886083,1.526801 0.367904,0.870949 0.646565,1.793089 0.766162,2.73096 0.0902,0.707338 0.03411,1.429833 -0.04243,2.13878 -0.151474,1.402766 -0.45452,2.789909 -0.821361,4.152306 -0.448745,1.666579 -1.055643,3.288707 -1.681553,4.897151 -0.708577,1.820883 -1.485208,3.617586 -2.344354,5.372459 -0.841834,1.719506 -1.728428,3.423146 -2.749041,5.042946 -1.417695,2.25 -3.051955,4.35808 -4.670625,6.46811 -1.694064,2.20832 -3.448475,4.37224 -5.271945,6.47498 -1.445119,1.66643 -2.795415,3.44846 -4.488464,4.86231 -1.427954,1.19247 -3.080608,2.0964 -4.710224,2.99384 -2.531754,1.39423 -5.154132,2.63726 -7.842821,3.69774 -4.987266,1.96712 -10.253002,3.14703 -15.312937,4.91887 -1.343367,0.4704 -2.690096,0.94035 -3.99203,1.51557 -1.567101,0.69238 -3.0668956,1.5286 -4.5842116,2.32418 -1.2264682,0.64308 -2.4445747,1.30244 -3.6526355,1.97946 -0.869991,0.48756 -1.77790445,0.91924 -2.58895708,1.49958 -0.65417476,0.46809 -1.25787072,1.00947 -1.81875722,1.58606 -0.8446068,0.86827 -1.5601155,1.85385 -2.3118326,2.80367 -0.9106085,1.15059 -1.7449047,2.36046 -2.6620649,3.50583 -0.8093655,1.01075 -1.605851,2.0373 -2.5053922,2.96871 -0.512492,0.53064 -1.0596019,1.03083 -1.6406589,1.48537 -0.801281,0.62682 -1.576081,1.35686 -2.532775,1.7028 -0.462693,0.16732 -1.014834,0.34114 -1.468364,0.15039 -0.23408,-0.0985 -0.505366,-0.34392 -0.474544,-0.59598 0.02703,-0.2211 0.356812,-0.2669 0.529929,-0.40706 z"
       id="path868"
       sodipodi:nodetypes="aaaaaaaaaaaaaaaaaaaaaaaaaaaaaaaaaaaaaaaaaaaaaaaaaaaaaaaaaccaaaaaaaaaaaaaaaaaaaaaaaaaaaaaaaaaaaaaaaaaaaaaaaaaaaaaaaaaaaaaaaaaaaa" />
    <path
       style="fill:none;stroke:#000000;stroke-width:0.264583px;stroke-linecap:butt;stroke-linejoin:miter;stroke-opacity:1"
       d="M 85.826206,117.41631 Z"
       id="path872" />
    <path
       style="fill:none;stroke:#000000;stroke-width:0.264583px;stroke-linecap:butt;stroke-linejoin:miter;stroke-opacity:1"
       d="M 85.826206,117.41631 Z"
       id="path874" />
    <path
       style="fill:none;stroke:#000000;stroke-width:0.264583px;stroke-linecap:butt;stroke-linejoin:miter;stroke-opacity:1"
       d="m 85.826206,117.41631 c 0,0 0,0 0,0 z"
       id="path876" />
    <g
       id="g882"
       style="fill:#000000;fill-opacity:1;stroke:none"
       transform="rotate(-0.5,218.21057,129.06058)" />
    <path
       style="fill:#000000;fill-opacity:1;stroke:none;stroke-width:0.264583px;stroke-linecap:butt;stroke-linejoin:miter;stroke-opacity:1"
       d="m 46.296816,136.23821 c -0.990923,0.53377 -3.034251,1.48152 -3.034251,1.48152 l 1.164757,2.52596 c 0,0 3.087687,-1.5621 4.603257,-2.39598 2.009094,-1.10542 3.947764,-2.33513 5.949105,-3.45452 1.498609,-0.83819 3.086952,-1.52022 4.53578,-2.44179 2.308147,-1.46818 4.433452,-3.20806 6.58631,-4.89573 2.044771,-1.60296 4.150957,-3.14847 6.008952,-4.96461 2.103528,-2.05615 3.781632,-4.50937 5.774169,-6.67324 2.363999,-2.56729 5.093021,-4.79752 7.326596,-7.47904 1.437138,-1.72536 2.705786,-3.5928 3.880724,-5.50636 0.555062,-0.90401 1.138515,-1.81113 1.490381,-2.811881 0.131171,-0.373057 0.181652,-0.771947 0.222678,-1.165271 0.04853,-0.465194 0.114454,-0.943491 0.02669,-1.40291 -0.07763,-0.406495 -0.25213,-0.799387 -0.479412,-1.145232 -0.285428,-0.434324 -0.641615,-0.846175 -1.081298,-1.123276 -1.016146,-0.640407 -2.245339,-0.884256 -3.420116,-1.134401 -0.950671,-0.202428 -1.9297,-0.274826 -2.901577,-0.289159 -1.129093,-0.01661 -2.277778,-0.01177 -3.37939,0.236378 -1.02289,0.230421 -2.007053,0.64761 -2.928929,1.147155 -0.853795,0.462653 -1.689014,1.001356 -2.371258,1.692411 -0.564186,0.57147 -0.955946,1.293229 -1.374272,1.978713 -0.422887,0.692955 -0.823491,1.404172 -1.143635,2.150193 -0.294474,0.68618 -0.595389,1.38699 -0.70876,2.12504 -0.140429,0.91419 -0.09985,1.86122 0.04741,2.77433 0.156997,0.97347 0.535251,1.90051 0.881842,2.82363 0.362518,0.96553 0.705762,1.95411 1.249272,2.83062 0.520067,0.83871 1.13864,1.64068 1.894736,2.27488 1.13785,0.95441 2.507771,1.61466 3.867399,2.21218 0.999956,0.43945 2.067026,0.71226 3.122037,0.99507 1.226066,0.32866 2.536794,0.3542 3.720165,0.81342 0.135679,0.0527 0.298393,0.0969 0.377796,0.21888 0.08447,0.12973 0.06847,0.30796 0.05027,0.46169 -0.08841,0.74681 -0.47507,1.42831 -0.76109,2.12382 -0.725771,1.76486 -1.595587,3.46713 -2.418747,5.18871 -0.809533,1.69308 -1.665987,3.36343 -2.478259,5.0552 -0.634678,1.32187 -1.361432,2.60632 -1.871523,3.98109 -0.560074,1.50949 -0.936955,3.08364 -1.293637,4.65366 -0.302004,1.32936 -0.494154,2.68147 -0.714633,4.02675 -0.215787,1.31664 -0.495962,2.62762 -0.595187,3.95813 -0.120666,1.61797 -0.128793,3.25017 0.0018,4.86736 0.08505,1.05305 0.22628,2.11017 0.507492,3.12855 0.281834,1.02061 0.609815,2.05519 1.172426,2.95217 0.739876,1.17959 1.784949,2.15115 2.823975,3.07813 0.759609,0.67769 1.564154,1.33173 2.470354,1.7955 0.572067,0.29277 1.197957,0.49429 1.831507,0.60194 0.745271,0.12662 1.516343,0.12872 2.267438,0.0436 0.956574,-0.1089 1.902793,-0.35736 2.801463,-0.70274 1.059472,-0.40718 2.027347,-1.02434 3.007506,-1.59667 1.274942,-0.74447 2.599367,-1.43848 3.731377,-2.38624 1.454083,-1.21741 2.623575,-2.74157 3.860024,-4.1795 1.01048,-1.17511 1.97783,-2.38834 2.90448,-3.63062 0.67904,-0.91032 1.94352,-2.79833 1.94352,-2.79833 l -2.62557,-1.08962 c 0,0 -2.43235,3.5973 -3.786695,5.2914 -0.861334,1.07742 -1.778408,2.11334 -2.752412,3.09009 -0.767179,0.76934 -1.522471,1.57413 -2.427822,2.17478 -0.827533,0.54902 -1.780314,0.88311 -2.694161,1.27185 -0.718537,0.30565 -1.429519,0.65368 -2.189611,0.83253 -0.586624,0.13802 -1.196512,0.17084 -1.799109,0.17838 -0.575659,0.007 -1.180532,0.0671 -1.722405,-0.12728 -0.5016,-0.17998 -0.915569,-0.55956 -1.305584,-0.92272 -0.408808,-0.38065 -0.744188,-0.8369 -1.062197,-1.29613 -0.225267,-0.32531 -0.476023,-0.64987 -0.594759,-1.02732 -0.114035,-0.36251 -0.153572,-0.76026 -0.09651,-1.13597 0.06588,-0.43375 0.314478,-0.8197 0.495774,-1.2192 0.673819,-1.48483 1.483222,-2.90454 2.197087,-4.37054 0.628123,-1.28991 1.24358,-2.58625 1.83524,-3.8933 0.83582,-1.84642 1.665572,-3.69683 2.421731,-5.57729 0.784175,-1.95013 1.557367,-3.90862 2.191837,-5.91246 0.601877,-1.90091 1.099305,-3.83602 1.5278,-5.78335 0.239822,-1.08988 0.3823,-2.19896 0.582594,-3.29679 0.255121,-1.39835 0.548596,-2.78972 0.788636,-4.19074 0.297898,-1.73869 0.656558,-3.47249 0.80843,-5.22997 0.07322,-0.8473 0.145385,-1.70596 0.04853,-2.55088 -0.04089,-0.35679 -0.07962,-0.73624 -0.263643,-1.04465 -0.18296,-0.30661 -0.473562,-0.55764 -0.789559,-0.72386 -0.270628,-0.14236 -0.592085,-0.1571 -0.893933,-0.20605 -1.43436,-0.23259 -2.897704,-0.23367 -4.33964,-0.41342 -1.403482,-0.17496 -2.814186,-0.33377 -4.193429,-0.64692 -0.719403,-0.16334 -1.435034,-0.36258 -2.118523,-0.64018 -1.012832,-0.41136 -1.984283,-0.93034 -2.911761,-1.50899 -0.301494,-0.18809 -0.612731,-0.37611 -0.856701,-0.63449 -0.189797,-0.201 -0.374569,-0.42904 -0.454599,-0.69366 -0.183822,-0.6078 -0.06128,-1.27169 -0.01383,-1.9049 0.07269,-0.96979 0.160821,-1.95502 0.455853,-2.88169 0.261452,-0.82121 0.665008,-1.60264 1.146813,-2.317202 0.454802,-0.674505 0.98755,-1.314345 1.621928,-1.823631 0.361927,-0.290558 0.784845,-0.50637 1.215852,-0.678556 0.348749,-0.139324 0.71979,-0.225089 1.09131,-0.27995 0.270416,-0.03994 0.550424,-0.08367 0.819318,-0.03453 0.248181,0.04536 0.477974,0.170416 0.696049,0.297279 0.154989,0.09016 0.304201,0.196067 0.428191,0.325603 0.170983,0.178611 0.326457,0.381786 0.422784,0.609511 0.08211,0.194133 0.116892,0.409773 0.121844,0.620491 0.0092,0.392871 -0.06412,0.788521 -0.172574,1.166235 -0.156391,0.54466 -0.410957,1.05947 -0.681248,1.55752 -0.502528,0.92598 -1.108261,1.79525 -1.737718,2.64009 -1.090549,1.46371 -2.321903,2.81764 -3.521573,4.19333 -2.049318,2.34998 -4.203349,4.60675 -6.278107,6.9343 -1.234445,1.38486 -2.358026,2.87254 -3.671083,4.18309 -1.97277,1.96901 -4.095862,3.79142 -6.295286,5.50354 -1.745168,1.35851 -3.61186,2.55468 -5.458946,3.771 -1.86241,1.22641 -3.752734,2.4114 -5.667474,3.55438 -1.56429,0.93381 -3.176929,1.78433 -4.753302,2.69757 -0.648588,0.37575 -1.275745,0.78903 -1.935664,1.1445 z"
       id="path933"
       sodipodi:nodetypes="accaaaaaaaaaaaaaaaaaaaaaaaaaaaaaaaaaaaaaaaaaaaaaaaaaccaaaaaaaaaaaaaaaaaaaaaaaaaaaaaaaaaaaaaaaaaaaaaaaaaaaa" />
    <path
       style="fill:#000000;fill-opacity:1;stroke:none;stroke-width:0.264583px;stroke-linecap:butt;stroke-linejoin:miter;stroke-opacity:1"
       d="m 102.81903,147.16738 c 0,0 3.18538,-4.89061 4.72244,-7.37096 2.14101,-3.45499 4.01629,-7.07546 6.26659,-10.46027 1.53953,-2.31571 3.03108,-4.70027 4.93974,-6.72255 1.73443,-1.83768 3.77908,-3.37115 5.83939,-4.83418 1.97499,-1.40245 4.03076,-2.72075 6.21988,-3.75766 1.51439,-0.71732 3.09949,-1.32751 4.73714,-1.68246 1.33264,-0.28883 2.71505,-0.4384 4.07574,-0.34978 0.74374,0.0485 1.69642,-0.085 2.18413,0.47854 0.22765,0.26308 0.12705,0.6971 0.0746,1.04105 -0.0682,0.44828 -0.30837,0.85393 -0.49667,1.26644 -0.23397,0.51258 -0.4793,1.02366 -0.7846,1.49723 -0.42666,0.66184 -0.84856,1.358 -1.45313,1.86256 -0.5064,0.42262 -1.14215,0.66886 -1.75269,0.91843 -0.84689,0.34619 -1.77375,0.46477 -2.62743,0.79387 -0.71493,0.27562 -1.4299,0.57438 -2.07729,0.98423 -1.17407,0.74328 -2.2521,1.6494 -3.22487,2.64167 -1.11617,1.13854 -2.08656,2.42381 -2.95703,3.75961 -1.29784,1.99167 -2.26218,4.18219 -3.34743,6.29724 -0.68313,1.33137 -1.40676,2.64588 -1.99125,4.02342 -0.59774,1.40875 -1.16124,2.84187 -1.54395,4.32358 -0.3076,1.19096 -0.64239,2.41228 -0.59716,3.64148 0.0319,0.86597 0.16151,1.78494 0.60811,2.52756 0.24679,0.41038 0.6511,0.7312 1.07623,0.95162 0.56522,0.29306 1.22716,0.35883 1.8586,0.4403 0.90708,0.11703 1.83812,0.19886 2.743,0.0659 1.30154,-0.1913 2.63181,-0.53514 3.75133,-1.226 1.019,-0.62884 1.76925,-1.62569 2.52855,-2.55157 0.91399,-1.11451 1.68242,-2.34544 2.41606,-3.58611 0.81433,-1.37716 1.49479,-2.82984 2.1957,-4.26804 0.88929,-1.82475 1.77922,-3.65233 2.54863,-5.53078 0.72429,-1.7683 1.46351,-3.54364 1.94254,-5.39352 0.34474,-1.33131 0.59907,-2.69847 0.66166,-4.07227 0.0237,-0.51917 0.0663,-1.06611 -0.10907,-1.55533 -0.11214,-0.31273 -0.35467,-0.56599 -0.57794,-0.81201 -0.28439,-0.31336 -0.60345,-0.60211 -0.95829,-0.83268 -0.27193,-0.1767 -0.56753,-0.33032 -0.88142,-0.41181 -0.4728,-0.12276 -0.9749,-0.14397 -1.46173,-0.10393 -0.87763,0.0723 -1.75521,0.27931 -2.5691,0.61555 -0.9391,0.38795 -1.81109,0.9503 -2.60131,1.58904 -0.3713,0.30012 -0.70573,0.65227 -0.9863,1.03856 -0.30166,0.41537 -0.51177,0.89115 -0.73389,1.35396 -0.33217,0.69213 -0.63983,1.3982 -0.89311,2.12293 -0.29254,0.83706 -0.535,1.69362 -0.72031,2.56075 -0.0994,0.46523 -0.17538,0.9373 -0.20885,1.41186 -0.0433,0.61394 -0.13945,1.24961 0.0111,1.84639 0.13279,0.52639 0.4707,0.9815 0.76396,1.43835 0.479,0.74622 0.96906,1.50675 1.61642,2.11271 0.50825,0.47574 1.1227,0.83276 1.73884,1.15685 0.51118,0.26889 1.0432,0.52515 1.60821,0.64503 0.43384,0.092 0.89246,0.12366 1.32959,0.0488 0.30929,-0.053 0.59481,-0.20562 0.87566,-0.34558 0.6834,-0.34058 1.29466,-0.81039 1.95434,-1.1949 0.89256,-0.52025 1.80921,-0.99811 2.70996,-1.50407 0.98246,-0.55187 1.94715,-1.13563 2.93889,-1.67067 0.90681,-0.48921 1.8225,-0.96301 2.7523,-1.40697 0.82334,-0.39313 2.5011,-1.11204 2.5011,-1.11204 l 1.04481,2.50359 c 0,0 -1.84742,1.0688 -2.7775,1.592 -1.28569,0.72325 -2.58985,1.41339 -3.87441,2.13865 -0.95063,0.53672 -1.89947,1.07702 -2.83629,1.63749 -0.77475,0.4635 -1.49515,1.0221 -2.30233,1.42647 -1.01093,0.50645 -2.05308,0.99704 -3.15742,1.23975 -0.66915,0.14706 -1.3746,0.2237 -2.05186,0.12021 -0.87422,-0.13357 -1.68799,-0.54831 -2.48137,-0.939 -0.77441,-0.38137 -1.53523,-0.81425 -2.20311,-1.36112 -0.91824,-0.75186 -1.6803,-1.6819 -2.43211,-2.60017 -0.62026,-0.75761 -1.28754,-1.50578 -1.70695,-2.39054 -0.5186,-1.09406 -0.91757,-2.29502 -0.95202,-3.50529 -0.0323,-1.13456 0.32503,-2.26161 0.70408,-3.33147 0.54726,-1.54457 1.16328,-3.14012 2.23836,-4.37681 1.33069,-1.53072 3.15434,-2.61222 4.97929,-3.49733 2.01278,-0.97621 4.23556,-1.48614 6.42922,-1.92448 0.65012,-0.12991 1.31598,-0.23614 1.97827,-0.20571 0.5937,0.0273 1.19648,0.12735 1.74906,0.34619 0.35207,0.13944 0.67057,0.36197 0.96323,0.60228 0.2722,0.2235 0.50575,0.49316 0.72379,0.76976 0.29632,0.37587 0.56847,0.77511 0.78752,1.20067 0.22406,0.43533 0.42223,0.89206 0.5314,1.36935 0.13037,0.56996 0.12441,1.16399 0.13937,1.74848 0.0218,0.85019 0.0289,1.70596 -0.0723,2.55037 -0.17253,1.43831 -0.52795,2.85203 -0.90762,4.25 -0.25718,0.94697 -0.57081,1.87967 -0.92597,2.79443 -0.88044,2.26766 -1.92398,4.47019 -2.98048,6.66136 -0.64797,1.3439 -1.31316,2.68196 -2.05826,3.97455 -0.67488,1.17075 -1.39471,2.31833 -2.18091,3.41742 -0.69606,0.97307 -1.44534,1.91002 -2.23964,2.80468 -0.52489,0.59119 -1.06013,1.18 -1.66505,1.689 -0.53217,0.44779 -1.11305,0.83983 -1.71443,1.18923 -0.76255,0.44305 -1.56477,0.82213 -2.38671,1.1418 -0.85323,0.33184 -1.72658,0.63649 -2.6273,0.80017 -0.72359,0.1315 -1.46651,0.15489 -2.20182,0.14089 -1.20354,-0.023 -2.41555,-0.11518 -3.59254,-0.36763 -0.90083,-0.19322 -1.80337,-0.45049 -2.62312,-0.871 -1.00414,-0.5151 -1.93815,-1.19422 -2.74098,-1.98736 -0.70631,-0.6978 -1.26599,-1.53915 -1.77756,-2.39009 -0.42105,-0.70035 -0.81866,-1.43135 -1.05112,-2.21477 -0.29838,-1.00561 -0.41433,-2.06978 -0.41966,-3.1187 -0.007,-1.32213 0.489,-3.93618 0.489,-3.93618 0,0 -1.26791,1.9348 -1.88594,2.91241 -1.33669,2.11435 -3.94074,6.38639 -3.94074,6.38639 z"
       id="path935"
       sodipodi:nodetypes="caaaaaaaaaaaaaaaaaaaaaaaaaaaaaaaaaaaaaaaaaaaaaaaaaaaaaaaccaaaaaaaaaaaaaaaaaaaaaaaaaaaaaaaaaaaaaaaacacc" />
    <path
       style="fill:#000000;fill-opacity:1;stroke:none;stroke-width:0.264583px;stroke-linecap:butt;stroke-linejoin:miter;stroke-opacity:1"
       d="m 151.86932,128.84059 c -0.81224,0.32414 -2.41457,1.02616 -2.41457,1.02616 l 1.04481,2.50358 c 0,0 1.73894,-0.77604 2.63429,-1.09721 1.09347,-0.39225 2.21087,-0.71893 3.33538,-1.0105 1.18843,-0.30815 2.38646,-0.59194 3.59981,-0.77942 1.79477,-0.27733 3.61066,-0.41782 5.42449,-0.50802 1.8414,-0.0916 3.68976,0.0624 5.53094,-0.0332 1.01398,-0.0528 2.03224,-0.11774 3.0314,-0.29838 0.80667,-0.14585 1.60431,-0.35711 2.37681,-0.63137 1.12375,-0.39895 2.23897,-0.85572 3.26262,-1.46738 1.02954,-0.61517 1.9486,-1.40438 2.85438,-2.19048 1.15529,-1.00263 2.2711,-2.05996 3.27857,-3.21103 0.91062,-1.0404 1.77814,-2.13295 2.48421,-3.32169 0.44258,-0.7451 0.805,-1.54272 1.08337,-2.36343 0.18742,-0.55257 0.32727,-1.12646 0.38923,-1.70667 0.0584,-0.54658 0.0455,-1.10306 -0.0194,-1.64897 -0.0676,-0.57257 -0.19706,-1.14099 -0.38333,-1.68663 -0.16599,-0.48627 -0.38146,-0.95948 -0.64883,-1.39826 -0.38688,-0.63493 -0.84959,-1.22874 -1.36766,-1.76204 -0.46638,-0.48009 -0.98516,-0.9174 -1.5499,-1.27666 -0.5068,-0.32241 -1.05597,-0.58839 -1.62715,-0.77425 -0.57322,-0.18651 -1.17645,-0.28714 -1.77753,-0.33272 -0.78847,-0.0598 -1.59835,-0.0888 -2.3709,0.0799 -1.06472,0.23252 -2.05376,0.75048 -3.01603,1.26207 -1.12672,0.59903 -2.1815,1.33242 -3.20008,2.10107 -0.94695,0.71458 -1.83879,1.50336 -2.69446,2.32504 -0.85204,0.81819 -1.65822,1.68588 -2.422,2.58702 -0.77365,0.91281 -1.48787,1.87569 -2.18295,2.84968 -0.61368,0.85996 -1.2194,1.72871 -1.75264,2.64073 -0.53564,0.91614 -0.981,1.88237 -1.44809,2.83526 -0.46473,0.94807 -0.94716,1.88962 -1.34724,2.86671 -0.40994,1.00114 -0.74178,2.033 -1.07609,3.06186 -0.46255,1.42352 -0.87906,2.86185 -1.28568,4.30234 -0.34643,1.22729 -0.69478,2.45505 -0.98296,3.69731 -0.19304,0.83212 -0.37944,1.66776 -0.4992,2.51354 -0.0895,0.63196 -0.16637,1.26959 -0.16309,1.90785 0.005,1.02749 0.0573,2.06861 0.29406,3.06843 0.17215,0.72677 0.45677,1.43095 0.8095,2.08929 0.45074,0.84127 1.00705,1.6346 1.6498,2.34012 0.70371,0.77242 1.52054,1.44674 2.38316,2.03642 1.06367,0.72712 2.20081,1.37238 3.40657,1.82648 0.89224,0.33604 1.83907,0.53694 2.78613,0.64709 0.96261,0.11202 1.94592,0.13199 2.9073,0.01 0.94318,-0.1198 1.89592,-0.32423 2.7593,-0.7224 1.38389,-0.63822 2.55711,-1.66653 3.75218,-2.61221 1.59264,-1.26028 3.04885,-2.68468 4.5375,-4.06625 1.75599,-1.6297 3.47755,-3.29662 5.18196,-4.98019 1.86008,-1.83735 3.69394,-3.70152 5.50418,-5.58799 0.77428,-0.80689 2.29101,-2.45079 2.29101,-2.45079 l -2.22873,-1.76077 c 0,0 -3.17722,3.39829 -4.82439,5.04004 -1.4962,1.4913 -3.04019,2.93438 -4.5925,4.36718 -1.94384,1.79418 -3.859,3.62572 -5.91092,5.29522 -0.68786,0.55966 -1.40538,1.08388 -2.14102,1.57907 -0.74944,0.50447 -1.46387,1.10229 -2.31131,1.41533 -0.45355,0.16754 -0.94998,0.19588 -1.43237,0.22857 -0.52268,0.0355 -1.05979,0.0775 -1.57121,-0.0364 -0.64694,-0.1436 -1.23782,-0.48332 -1.82009,-0.7997 -0.41527,-0.22563 -0.84101,-0.45445 -1.1848,-0.77873 -0.48782,-0.46013 -0.8657,-1.03315 -1.20116,-1.61379 -0.13241,-0.22921 -0.27652,-0.46707 -0.31504,-0.72895 -0.0359,-0.24464 -0.0135,-0.5102 0.0858,-0.73682 0.10728,-0.24581 0.3146,-0.44248 0.52266,-0.61173 0.2048,-0.1666 0.47179,-0.239 0.69424,-0.38117 0.47124,-0.30116 0.97831,-0.5781 1.35051,-0.99551 0.17286,-0.19387 0.28903,-0.43565 0.38773,-0.67591 0.18483,-0.44995 0.2661,-0.93628 0.37332,-1.41075 0.12036,-0.53258 0.26463,-1.06516 0.30259,-1.60985 0.0574,-0.8224 -0.11177,-1.6461 -0.11526,-2.47046 -0.002,-0.58005 0.0212,-1.16059 0.0663,-1.73889 0.0506,-0.65005 0.11332,-1.30093 0.22925,-1.94256 0.13111,-0.7257 0.369,-1.42833 0.52593,-2.14888 0.25191,-1.15668 0.44297,-2.3258 0.66674,-3.48825 0.18084,-0.93944 0.30863,-1.89088 0.54624,-2.81757 0.20905,-0.81532 0.48561,-1.61267 0.77153,-2.40432 0.27257,-0.75465 0.55811,-1.50656 0.89885,-2.233 0.33324,-0.71047 0.72374,-1.3933 1.11726,-2.07224 0.51767,-0.89314 1.03977,-1.78675 1.63484,-2.6303 0.46424,-0.65809 0.9858,-1.27443 1.50529,-1.88983 0.40625,-0.48124 0.80898,-0.96821 1.25934,-1.40846 0.30393,-0.29712 0.6259,-0.57807 0.9696,-0.82814 0.27157,-0.19759 0.55497,-0.38353 0.85835,-0.5276 0.27517,-0.13068 0.5639,-0.24272 0.8629,-0.30094 0.37181,-0.0723 0.75831,-0.0953 1.13501,-0.0557 0.24189,0.0255 0.48586,0.082 0.70538,0.18666 0.26536,0.12658 0.50201,0.31484 0.71193,0.52069 0.33,0.3236 0.62944,0.69165 0.84028,1.10293 0.23239,0.45328 0.35692,0.96004 0.44634,1.46152 0.13373,0.74989 0.18461,1.5218 0.12913,2.2815 -0.0518,0.7076 -0.18434,1.41861 -0.42778,2.08502 -0.19007,0.52031 -0.48287,1.00154 -0.79398,1.45987 -0.42857,0.63136 -0.94681,1.19896 -1.46528,1.75886 -0.82615,0.89218 -1.69365,1.74984 -2.61524,2.54307 -0.70779,0.60921 -1.44447,1.19095 -2.23038,1.69539 -0.79431,0.50986 -1.62732,0.96831 -2.49665,1.33592 -1.07273,0.45364 -2.18883,0.82327 -3.32881,1.06199 -1.29265,0.27068 -2.62379,0.31089 -3.94065,0.41141 -1.31922,0.10071 -2.64224,0.14687 -3.96452,0.19181 -0.95065,0.0323 -1.90356,-0.001 -2.85304,0.0559 -1.00906,0.0607 -2.01951,0.1425 -3.0173,0.30467 -0.65852,0.10703 -1.3023,0.29057 -1.95251,0.43995 -0.80831,0.18571 -1.62873,0.32714 -2.42258,0.56731 -0.95471,0.28885 -1.87671,0.67759 -2.80312,1.04729 z"
       id="path937"
       sodipodi:nodetypes="accaaaaaaaaaaaaaaaaaaaaaaaaaaaaaaaaaaaaaaaaaaaaaaccaaaaaaaaaaaaaaaaaaaaaaaaaaaaaaaaaaaaaaaaaaaaaaaaaaaaaa" />
    <path
       style="display:inline;fill:#000000;fill-opacity:1;stroke:none;stroke-width:0.264583px;stroke-linecap:butt;stroke-linejoin:miter;stroke-opacity:1"
       d="m 197.155,126.55875 c -1.1334,0.97093 -3.151,3.18075 -3.151,3.18075 l 2.22873,1.76075 c 0,0 1.60491,-1.74298 2.48313,-2.53555 0.67834,-0.61216 1.3609,-1.23731 2.14431,-1.7076 0.4337,-0.26033 0.90875,-0.45526 1.39247,-0.60317 0.42105,-0.12876 0.86169,-0.18675 1.29843,-0.24266 0.51004,-0.0652 1.02729,-0.0556 1.53884,-0.10773 0.37023,-0.0377 0.77694,0.0245 1.10658,-0.14832 4.25004,-2.22729 5.5086,-8.29284 9.69164,-10.64357 0.64104,-0.36024 1.4954,-0.11783 2.16553,-0.42051 0.89279,-0.40322 1.50288,-1.2655 2.32764,-1.79411 0.85983,-0.55107 1.78454,-0.99812 2.71294,-1.4236 0.7792,-0.3571 1.60238,-0.61023 2.39154,-0.94475 1.37958,-0.58482 2.7812,-1.13406 4.09412,-1.8562 1.27269,-0.70003 2.46231,-1.54473 3.64475,-2.38831 1.25405,-0.89469 2.48302,-1.82873 3.65292,-2.83096 1.06681,-0.91391 2.06321,-1.90774 3.06214,-2.89539 1.11097,-1.098416 2.20843,-2.212063 3.25857,-3.368777 1.54264,-1.69922 3.01243,-3.464137 4.46439,-5.241472 1.67129,-2.045823 3.35365,-4.087834 4.88685,-6.239095 1.83037,-2.568231 3.53956,-5.225937 5.13691,-7.945219 0.96771,-1.647371 1.88745,-3.327505 2.68887,-5.061861 0.90305,-1.95425 1.70006,-3.961277 2.38013,-6.003846 0.37576,-1.128617 0.7463,-2.269349 0.93592,-3.443667 0.18579,-1.150584 0.28815,-2.329735 0.19155,-3.491214 -0.0889,-1.069681 -0.35563,-2.127086 -0.70511,-3.141972 -0.2904,-0.843293 -0.66951,-1.663856 -1.14577,-2.417947 -0.4191,-0.663594 -0.90465,-1.299704 -1.488,-1.824782 -0.55299,-0.497753 -1.19568,-0.903153 -1.86817,-1.221434 -0.64885,-0.307085 -1.34849,-0.514866 -2.0541,-0.646776 -0.88504,-0.165454 -1.79521,-0.186986 -2.6955,-0.174312 -1.07065,0.01505 -2.14381,0.112413 -3.19845,0.297459 -1.55205,0.272324 -3.09226,0.656973 -4.57482,1.190838 -1.89125,0.681033 -3.70808,1.572892 -5.46465,2.550186 -1.63596,0.910187 -3.22134,1.926029 -4.70153,3.072255 -1.6428,1.272152 -3.16844,2.699556 -4.60715,4.19865 -1.59214,1.658957 -3.01593,3.474265 -4.43297,5.285075 -1.57237,2.009295 -3.08762,4.066244 -4.50986,6.184449 -1.99444,2.970376 -3.91785,5.996642 -5.63339,9.136356 -1.4374,2.630672 -2.70805,5.353405 -3.8925,8.107245 -0.96695,2.248152 -1.8867,4.52367 -2.61899,6.858823 -0.87774,2.799038 -1.50177,5.673678 -2.11747,8.541788 -0.516,2.40363 -0.95748,4.82457 -1.31989,7.25611 -0.32131,2.15572 -0.58335,4.32205 -0.7567,6.49469 -0.0897,1.1247 -0.16636,2.25358 -0.14634,3.38168 0.0449,2.53175 0.21831,5.06929 0.59739,7.5729 0.3727,2.46138 0.85723,4.92319 1.64313,7.28533 0.7026,2.11175 1.56556,4.19575 2.72587,6.09493 0.70372,1.15187 1.56338,2.22077 2.53462,3.15816 0.37531,0.36222 0.78021,0.71811 1.25435,0.93551 0.4327,0.19841 0.91854,0.28604 1.39395,0.31031 0.55289,0.0282 1.11991,-0.0326 1.64946,-0.19395 0.64559,-0.19679 1.27159,-0.50671 1.80089,-0.92548 0.74871,-0.59239 1.2934,-1.40963 1.86003,-2.17802 1.05383,-1.42905 1.89719,-3.00195 2.84764,-4.50175 1.30308,-2.05628 2.54953,-4.14976 3.9143,-6.16562 1.42363,-2.10279 2.93801,-4.14324 4.45491,-6.17977 1.00708,-1.35204 1.96121,-2.75104 3.0841,-4.00853 0.4981,-0.5578 1.0073,-1.12052 1.61255,-1.55976 0.39605,-0.28741 0.82376,-0.56415 1.29751,-0.68673 0.38812,-0.10038 0.82125,-0.14764 1.20248,-0.0236 0.18693,0.0608 0.37271,0.18544 0.4699,0.3563 0.12754,0.22418 0.093,0.51103 0.0868,0.76888 -0.005,0.24896 -0.0658,0.49426 -0.11921,0.73749 -0.14956,0.68137 -0.37116,1.34492 -0.56195,2.01591 -0.67627,2.37836 -1.36625,4.75286 -2.06574,7.12451 -0.92652,3.14148 -2.01842,6.23662 -2.82285,9.41157 -0.7126,2.81254 -1.30037,5.65917 -1.77101,8.52216 -0.25157,1.53038 -0.53323,3.06811 -0.56143,4.61877 -0.0294,1.63024 0.006,3.29512 0.41338,4.87402 0.15693,0.60888 0.47895,1.16458 0.76891,1.72251 0.49685,0.956 1.00793,1.91541 1.65831,2.77436 0.59962,0.79191 1.28741,1.5256 2.04735,2.16525 0.53885,0.45356 1.15075,0.81592 1.7605,1.16844 0.41476,0.23978 0.83272,0.48699 1.28631,0.64116 0.60276,0.20489 1.23938,0.32179 1.87446,0.36615 0.62066,0.0434 1.25061,0.005 1.86384,-0.0997 0.78531,-0.13457 1.56577,-0.34915 2.29318,-0.67424 0.98261,-0.43916 1.89668,-1.0378 2.74481,-1.7004 1.91117,-1.49309 3.51855,-3.34038 5.21441,-5.07417 1.44381,-1.4761 2.85384,-2.98632 4.22079,-4.53387 1.71015,-1.93608 3.35627,-3.92874 4.97688,-5.94039 1.73508,-2.15376 3.4075,-4.35751 5.08013,-6.56013 1.1812,-1.55548 3.49933,-4.69971 3.49933,-4.69971 l -2.05946,-1.40093 c 0,0 -3.73073,4.90465 -5.63638,7.32563 -1.64164,2.08558 -3.30883,4.15118 -4.99373,6.20198 -1.64463,2.0018 -3.24594,4.04329 -4.99294,5.95641 -1.27456,1.39575 -2.59032,2.75977 -3.99781,4.02136 -0.9819,0.88011 -1.94527,1.81674 -3.09266,2.46651 -0.72872,0.41267 -1.54843,0.6487 -2.35368,0.8787 -0.42495,0.12136 -0.858,0.24524 -1.29962,0.2622 -0.31475,0.0117 -0.64038,-0.0118 -0.93789,-0.11528 -0.27429,-0.0954 -0.5863,-0.20939 -0.74401,-0.45323 -0.23108,-0.3573 -0.1687,-0.84128 -0.15849,-1.26667 0.0193,-0.8166 0.22451,-1.62116 0.42048,-2.41413 0.50864,-2.05818 1.22797,-4.06076 1.95307,-6.05301 0.84331,-2.31707 1.94227,-4.53571 2.78491,-6.85302 0.94389,-2.59574 1.83593,-5.21638 2.53987,-7.88719 0.64033,-2.42948 1.19523,-4.89066 1.52604,-7.38124 0.22065,-1.66118 0.26856,-3.34277 0.30261,-5.0182 0.0265,-1.29153 0.16286,-2.60511 -0.0759,-3.87466 -0.23956,-1.27369 -0.66991,-2.54081 -1.34133,-3.64937 -0.71964,-1.18819 -1.71065,-2.22482 -2.80053,-3.08612 -0.52453,-0.41451 -1.14327,-0.70189 -1.75657,-0.96801 -0.49754,-0.2159 -1.00891,-0.43612 -1.54697,-0.50431 -0.50868,-0.0645 -1.0353,-0.0172 -1.5352,0.0969 -1.06022,0.24186 -2.08413,0.67796 -3.0229,1.22684 -1.13872,0.66577 -2.12367,1.57335 -3.09534,2.46544 -0.84848,0.77898 -1.6162,1.64337 -2.37549,2.50953 -0.93254,1.06381 -1.80495,2.17945 -2.67361,3.29604 -1.31311,1.68788 -2.57076,3.41827 -3.83543,5.14272 -0.95186,1.2979 -1.90643,2.59429 -2.82422,3.91648 -0.70501,1.01568 -1.38537,2.04842 -2.05993,3.08458 -0.39679,0.60949 -0.78081,1.22722 -1.16891,1.84228 -0.1457,0.23088 -0.24461,0.49842 -0.43534,0.69374 -0.19536,0.20007 -0.42589,0.40623 -0.69977,0.46265 -0.19664,0.0405 -0.41059,-0.0223 -0.59279,-0.10656 -0.13178,-0.0609 -0.25519,-0.15646 -0.33622,-0.27695 -0.44245,-0.65781 -0.58129,-1.48785 -0.70839,-2.27037 -0.27854,-1.71477 -0.11532,-3.47355 -0.10218,-5.21074 0.0249,-3.27881 0.16086,-6.55685 0.34192,-9.83075 0.14215,-2.5691 0.23309,-5.14798 0.58424,-7.69693 0.32377,-2.35011 0.89721,-4.65945 1.40031,-6.9778 0.60514,-2.78855 1.23286,-5.57332 1.94606,-8.33622 0.63913,-2.475938 1.31234,-4.945111 2.08977,-7.381164 0.86149,-2.699466 1.82039,-5.368899 2.85036,-8.008676 0.94941,-2.433303 1.99914,-4.827015 3.06648,-7.210948 0.96465,-2.154583 1.81677,-4.37426 3.01539,-6.407988 1.59908,-2.713164 3.53578,-5.223083 5.53041,-7.660232 1.54636,-1.889427 3.14577,-3.758472 4.97367,-5.377095 1.05459,-0.933851 2.20926,-1.76449 3.4267,-2.473064 1.11214,-0.64729 2.27935,-1.231624 3.51052,-1.605917 0.77684,-0.236175 1.59347,-0.347739 2.40427,-0.39105 0.64474,-0.03443 1.29832,-0.007 1.93408,0.10551 0.62364,0.110391 1.26835,0.238432 1.81743,0.554045 0.5892,0.338668 1.07972,0.848191 1.49529,1.38592 0.49161,0.636115 0.85048,1.375311 1.14053,2.125109 0.27097,0.700543 0.45354,1.440578 0.54791,2.185753 0.1058,0.834978 0.11847,1.689477 0.016,2.524896 -0.20827,1.702164 -0.72072,3.361054 -1.27249,4.984719 -0.66071,1.944224 -1.49215,3.833873 -2.42856,5.661347 -1.90779,3.723164 -4.12789,7.287967 -6.47223,10.75289 -1.87518,2.771518 -3.91678,5.433437 -6.05828,8.004733 -1.98729,2.386153 -4.05703,4.713825 -6.28885,6.873024 -1.73864,1.682078 -3.63473,3.195318 -5.51333,4.719488 -0.93742,0.76055 -1.85318,1.55835 -2.87142,2.20672 -1.39133,0.88592 -2.88971,1.59851 -4.39195,2.27964 -1.23221,0.55868 -2.55804,0.89751 -3.78036,1.47754 -1.18838,0.56392 -2.35242,1.19459 -3.43717,1.93862 -3.13814,2.15246 -5.95,4.74992 -8.81298,7.25678 -0.969,0.84847 -1.82189,1.82887 -2.8285,2.63237 -0.69815,0.55728 -1.41783,1.10546 -2.2151,1.50836 -0.89416,0.45186 -1.9144,0.60259 -2.83548,0.99669 -0.88997,0.38078 -1.76241,0.81188 -2.58837,1.31668 -0.56058,0.34261 -1.09762,0.72833 -1.59656,1.15575 z"
       id="path939"
       sodipodi:nodetypes="accaaaaaaaaaaaaaaaaaaaaaaaaaaaaaaaaaaaaaaaaaaaaaaaaaaaaaaaaaaaaaaaaaaaaaaaaaaaaaaaaaccaaaaaaaaaaaaaaaaaaaaaaaaaaaaaaaaaaaaaaaaaaaaaaaaaaaaaaaaaaaaaaaaaaaaaaaa" />
    <path
       style="fill:#000000;fill-opacity:1;stroke:none;stroke-width:0.264583px;stroke-linecap:butt;stroke-linejoin:miter;stroke-opacity:1"
       d="m 272.31343,136.27538 c -0.75949,0.81845 -2.1911,2.5336 -2.1911,2.5336 l 2.05946,1.40093 c 0,0 1.73768,-2.05977 2.69239,-3.00814 1.23062,-1.22244 2.45492,-2.48589 3.90052,-3.44457 2.00207,-1.32769 4.23706,-2.30401 6.49649,-3.12008 1.09752,-0.39642 2.28723,-0.48637 3.3958,-0.85074 1.50094,-0.49333 2.95244,-1.13313 4.38451,-1.80048 2.01335,-0.93823 4.02999,-1.89783 5.90289,-3.09198 2.17475,-1.38661 4.17168,-3.04098 6.1471,-4.69929 2.37995,-1.99789 4.69908,-4.07926 6.85891,-6.3133 2.52237,-2.60904 4.83615,-5.41703 7.09832,-8.25465 2.47692,-3.107 4.92913,-6.24924 7.07908,-9.590853 2.12703,-3.305993 4.0187,-6.768575 5.73232,-10.306558 0.63488,-1.310761 1.28429,-2.631815 1.67942,-4.033609 0.48958,-1.736847 0.83105,-3.544186 0.83561,-5.348711 0.004,-1.432422 -0.0728,-2.934496 -0.64179,-4.249085 -0.4187,-0.967429 -1.16917,-1.783595 -1.95639,-2.484671 -0.83192,-0.740879 -1.82102,-1.316131 -2.84676,-1.750697 -1.01985,-0.432067 -2.11836,-0.701995 -3.2194,-0.822413 -1.24006,-0.135624 -2.51075,-0.08924 -3.74042,0.120615 -1.14608,0.195595 -2.25145,0.606493 -3.32612,1.050199 -2.07014,0.854716 -4.08445,1.874851 -5.96809,3.086454 -2.47416,1.591464 -4.78247,3.452239 -6.93986,5.45222 -2.35714,2.185148 -4.45288,4.643335 -6.51333,7.11022 -2.17641,2.605718 -4.15537,5.371094 -6.1649,8.107577 -1.69809,2.312389 -3.45704,4.58854 -4.97766,7.021312 -1.7498,2.79941 -3.31743,5.71598 -4.75322,8.6887 -1.30122,2.69411 -2.45428,5.4625 -3.48958,8.26957 -1.09672,2.97363 -2.11959,5.985 -2.87676,9.06265 -0.39551,1.60758 -0.65414,3.24861 -0.8652,4.89061 -0.2396,1.86402 -0.47428,3.74053 -0.45379,5.61977 0.0249,2.28048 0.22845,4.57454 0.69933,6.80602 0.51491,2.44018 1.07046,4.95155 2.30755,7.11701 0.77952,1.3645 1.92915,2.51022 3.12466,3.53017 0.9728,0.82993 2.05945,1.56028 3.23717,2.05841 1.50251,0.6355 3.12949,1.12991 4.76086,1.13437 2.62114,0.007 5.24329,-0.76394 7.65917,-1.78077 2.3414,-0.98548 4.39456,-2.57252 6.42297,-4.10183 3.02921,-2.28383 5.78327,-4.91778 8.52852,-7.5361 1.48276,-1.41423 2.86542,-2.92995 4.28376,-4.40879 1.18721,-1.23782 3.53741,-3.73652 3.53741,-3.73652 l -3.32018,-1.66952 c 0,0 -3.19999,3.22097 -4.81728,4.81404 -1.87916,1.85101 -3.72547,3.7381 -5.67735,5.51225 -1.39072,1.26409 -2.81367,2.49592 -4.29465,3.65292 -1.43561,1.12155 -2.8086,2.37809 -4.44317,3.18252 -1.38411,0.68116 -2.91127,1.06961 -4.43055,1.33714 -0.7735,0.13622 -1.5684,0.1743 -2.3526,0.13072 -0.6554,-0.0363 -1.34357,-0.0568 -1.94201,-0.32646 -0.50462,-0.22746 -0.9591,-0.60151 -1.29083,-1.0446 -0.30498,-0.40736 -0.4693,-0.91412 -0.58729,-1.40913 -0.24876,-1.04355 -0.2438,-2.137 -0.23516,-3.20974 0.016,-1.97918 0.28506,-3.94998 0.5292,-5.91409 0.30565,-2.45893 0.70766,-4.90659 1.17023,-7.34089 0.87002,-4.57849 1.66497,-9.19188 3.01681,-13.65194 1.02052,-3.36697 2.49831,-6.57878 3.82769,-9.83619 1.23079,-3.01582 2.43058,-6.04921 3.83993,-8.985832 1.60432,-3.342904 3.28968,-6.659253 5.24566,-9.809331 1.87763,-3.023888 4.02412,-5.877455 6.20679,-8.68911 1.41665,-1.824903 2.85941,-3.639643 4.46467,-5.301065 0.92382,-0.956132 1.89673,-1.875341 2.9606,-2.67273 1.07822,-0.808152 2.22305,-1.545448 3.4419,-2.119979 0.80962,-0.381641 1.65177,-0.767615 2.54127,-0.867382 0.77084,-0.08646 1.56805,0.03267 2.31408,0.245117 0.67739,0.192879 1.3288,0.510165 1.90326,0.917667 0.41967,0.297703 0.7886,0.675372 1.09227,1.090749 0.40064,0.548018 0.73804,1.159789 0.93404,1.809729 0.19185,0.636153 0.24751,1.317677 0.21751,1.98145 -0.067,1.481239 -0.44166,2.944114 -0.88235,4.359865 -0.82979,2.665818 -1.97343,5.240806 -3.29137,7.702144 -2.15264,4.020211 -4.8233,7.749024 -7.49016,11.448181 -2.71004,3.759027 -5.51588,7.467767 -8.63212,10.897577 -3.07216,3.3813 -6.27111,6.69773 -9.88082,9.49798 -2.42218,1.87903 -5.1208,3.38722 -7.8215,4.83768 -1.74545,0.93741 -3.58243,1.69484 -5.39821,2.48747 -3.05821,1.33498 -6.34125,2.19008 -9.25368,3.81874 -1.02589,0.57369 -1.95972,1.30842 -2.85257,2.07286 -0.97339,0.83339 -1.84029,1.78532 -2.71191,2.72462 z"
       id="path942"
       sodipodi:nodetypes="accaaaaaaaaaaaaaaaaaaaaaaaaaaaaaaaaaaaaaaccaaaaaaaaaaaaaaaaaaaaaaaaaaaaaaaaaaaa" />
    <path
       style="fill:#000000;fill-opacity:1;stroke:none;stroke-width:0.264583px;stroke-linecap:butt;stroke-linejoin:miter;stroke-opacity:1"
       d="m 319.49278,130.50141 c -0.84769,0.83005 -2.59969,2.43102 -2.59969,2.43102 l 3.32019,1.66952 c 0,0 1.12983,-1.4002 1.83856,-1.94013 0.31229,-0.23793 0.6526,-0.62174 1.03933,-0.5541 0.0371,0.007 0.0607,0.0493 0.0756,0.0837 0.13711,0.31579 0.0855,0.68481 0.0874,1.02908 0.0109,1.93369 -0.51145,3.85368 -0.42595,5.78552 0.10425,2.35416 0.31337,4.77014 1.1399,6.9769 0.45095,1.20395 1.17643,2.31853 2.03171,3.27841 1.02762,1.15329 2.2476,2.19323 3.63253,2.87737 1.19879,0.59219 2.55548,0.8833 3.88879,0.98362 1.51289,0.11382 3.07247,-0.0218 4.52984,-0.44316 1.37284,-0.39728 2.62159,-1.16378 3.83061,-1.92585 1.93451,-1.21935 3.65357,-2.75299 5.42379,-4.20053 1.49707,-1.2242 2.95051,-2.50147 4.39241,-3.79018 1.39242,-1.24447 2.77324,-2.50314 4.11155,-3.80562 0.93606,-0.911 2.7388,-2.8025 2.7388,-2.8025 l -2.63281,-2.17694 c 0,0 -2.56403,2.29607 -3.86122,3.42687 -1.4668,1.27866 -2.92491,2.56862 -4.43431,3.79668 -1.16056,0.94424 -2.33263,1.87705 -3.55169,2.74443 -0.91136,0.64846 -1.83947,1.2777 -2.8087,1.83596 -1.03152,0.59414 -2.06214,1.22466 -3.19006,1.6052 -0.96905,0.32694 -1.99751,0.65585 -3.01602,0.56314 -0.76016,-0.0692 -1.59734,-0.2811 -2.13812,-0.81978 -0.4166,-0.41498 -0.52562,-1.06746 -0.63794,-1.64464 -0.19857,-1.02029 -0.10786,-2.08046 -0.0449,-3.11798 0.083,-1.36728 0.34209,-2.71861 0.55572,-4.07165 0.34207,-2.16643 0.63584,-4.34718 1.16218,-6.47634 0.49045,-1.984 1.18068,-3.91447 1.85359,-5.84422 0.5255,-1.50702 1.08271,-3.00445 1.70416,-4.4745 0.61982,-1.46627 1.41266,-2.85613 2.0168,-4.32894 0.37636,-0.9175 0.88622,-1.817 0.99927,-2.80222 0.0722,-0.62898 0.0797,-1.32725 -0.21616,-1.88697 -0.26589,-0.50298 -0.78838,-0.85052 -1.29185,-1.11547 -0.52074,-0.27402 -1.11942,-0.4281 -1.70751,-0.44797 -0.54343,-0.0185 -1.10797,0.0798 -1.60216,0.30656 -0.63271,0.29037 -1.14417,0.80574 -1.63514,1.29932 -1.20033,1.20672 -2.13363,2.65327 -3.15537,4.01453 -1.25743,1.67528 -2.3987,3.4358 -3.65944,5.10858 -1.06443,1.41233 -2.13995,2.81916 -3.29507,4.15832 -0.88277,1.02341 -1.83971,1.98058 -2.7739,2.95729 -0.55924,0.58469 -1.11665,1.17157 -1.69474,1.73763 z"
       id="path944"
       sodipodi:nodetypes="accaaaaaaaaaaaaaaccaaaaaaaaaaaaaaaaaaaaaaaaa" />
    <path
       style="display:inline;fill:#000000;fill-opacity:1;stroke:none;stroke-width:0.264583px;stroke-linecap:butt;stroke-linejoin:miter;stroke-opacity:1"
       d="m 339.21108,102.52071 c 0.53586,0.53369 1.43275,0.58783 2.18899,0.59672 0.83211,0.01 1.68161,-0.22258 2.42336,-0.59982 0.71717,-0.36473 1.44057,-0.85854 1.84875,-1.55191 0.52105,-0.88509 0.60426,-1.997857 0.58695,-3.024781 -0.0161,-0.931724 -0.10792,-1.94944 -0.62473,-2.724879 -0.40937,-0.614279 -1.0722,-1.174948 -1.80175,-1.287636 -1.01645,-0.157008 -2.10268,0.348336 -2.9347,0.952988 -0.86205,0.626477 -1.44073,1.615375 -1.87803,2.587165 -0.33967,0.754855 -0.55826,1.597146 -0.53658,2.424618 0.0238,0.908505 0.0838,1.986205 0.72774,2.627535 z"
       id="path946"
       sodipodi:nodetypes="aaaaaaaaaaa" />
    <path
       style="fill:#000000;fill-opacity:1;stroke:none;stroke-width:0.264583px;stroke-linecap:butt;stroke-linejoin:miter;stroke-opacity:1"
       d="m 360.14737,130.35252 c -1.43806,1.17563 -4.23202,3.62502 -4.23202,3.62502 l 2.63278,2.17694 c 0,0 1.98495,-2.05067 3.24787,-2.64701 0.26869,-0.12688 0.62719,-0.34136 0.87394,-0.1758 0.34103,0.22883 0.21645,0.79945 0.23311,1.2098 0.0335,0.82611 -0.30228,1.63942 -0.27032,2.46557 0.0484,1.25287 0.30998,2.50376 0.69746,3.69619 0.47098,1.4494 1.11962,2.85831 1.95514,4.13286 0.89862,1.37082 1.93733,2.703 3.23739,3.70124 1.14623,0.88012 2.49382,1.54046 3.8896,1.91494 1.11943,0.30033 2.3134,0.31649 3.46933,0.23192 1.39536,-0.10208 2.79861,-0.37947 4.10259,-0.88649 1.443,-0.56107 2.74591,-1.44977 4.01015,-2.34346 1.80632,-1.2769 3.41406,-2.81531 5.06779,-4.28444 1.89564,-1.68405 3.81175,-3.35474 5.56133,-5.19006 1.08244,-1.13548 3.04283,-3.59028 3.04283,-3.59028 l -2.68927,-1.81409 c 0,0 -2.22774,2.76721 -3.45679,4.04645 -1.08026,1.12438 -2.27159,2.13693 -3.43219,3.17819 -1.29345,1.16045 -2.53697,2.38729 -3.93465,3.41986 -1.278,0.94414 -2.59146,1.88093 -4.0462,2.52004 -0.81349,0.35737 -1.69216,0.56584 -2.56838,0.71318 -0.4852,0.0816 -0.98593,0.16034 -1.47316,0.0919 -0.78819,-0.11057 -1.61389,-0.32074 -2.25008,-0.799 -0.47002,-0.35332 -0.79918,-0.8916 -1.02895,-1.43285 -0.46259,-1.08967 -0.60097,-2.31065 -0.63635,-3.49392 -0.0435,-1.45322 0.28793,-2.89542 0.52367,-4.33004 0.34855,-2.12105 0.72242,-4.24679 1.31511,-6.31296 0.59621,-2.07844 1.40415,-4.09383 2.24451,-6.08612 0.57744,-1.36895 1.16787,-2.74107 1.9187,-4.02315 0.39743,-0.67864 0.80441,-1.37145 1.36043,-1.92764 0.54046,-0.54065 1.20076,-0.95956 1.87329,-1.323 0.87788,-0.47441 1.82243,-0.83429 2.78448,-1.09923 1.06725,-0.29392 2.17605,-0.42583 3.27775,-0.53392 0.71069,-0.0697 1.42849,-0.11977 2.14108,-0.0731 0.43634,0.0286 0.89322,0.0406 1.29401,0.21541 0.39272,0.17133 0.77655,0.43134 1.0172,0.78584 0.28879,0.42544 0.35356,0.97354 0.42591,1.48263 0.0458,0.32246 -0.0942,0.66607 0.003,0.97707 0.0635,0.20455 0.20196,0.38909 0.36313,0.53021 0.2226,0.19494 0.50801,0.31802 0.79216,0.40055 0.21983,0.0639 0.45514,0.0828 0.68348,0.0666 0.26868,-0.0189 0.543,-0.0727 0.78528,-0.19045 0.16596,-0.0806 0.35213,-0.17738 0.43509,-0.34218 0.18056,-0.35873 0.0623,-0.80372 0.0341,-1.20432 -0.0367,-0.52069 -0.1152,-1.04314 -0.26351,-1.54361 -0.16233,-0.54783 -0.336,-1.11685 -0.6787,-1.57405 -0.4159,-0.55485 -1.00388,-0.97645 -1.60247,-1.3265 -1.02335,-0.59845 -2.17333,-0.97399 -3.31977,-1.27565 -0.95873,-0.25227 -1.95371,-0.35606 -2.9417,-0.43779 -1.42838,-0.11814 -2.87625,-0.24674 -4.29911,-0.0745 -1.54848,0.18748 -3.06743,0.63763 -4.52412,1.19534 -1.2243,0.46871 -2.4197,1.05048 -3.50113,1.79151 -0.96498,0.66122 -1.81859,1.4829 -2.61852,2.3364 -1.07056,1.14224 -1.96204,2.44106 -2.89344,3.69935 -0.45998,0.62144 -0.91883,1.24549 -1.32998,1.90025 -0.76255,1.21437 -1.1726,2.6616 -2.10293,3.75278 -0.53018,0.62186 -1.27966,1.01669 -1.92224,1.52157 -1.08932,0.85589 -2.20467,1.67904 -3.27721,2.55585 z"
       id="path949"
       sodipodi:nodetypes="accaaaaaaaaaaaaaccaaaaaaaaaaaaaaaaaaaaaaaaaaaaaaaaaaaaaaaaaa" />
    <path
       style="fill:#000000;fill-opacity:1;stroke:none;stroke-width:0.264583px;stroke-linecap:butt;stroke-linejoin:miter;stroke-opacity:1"
       d="m 397.90961,129.52461 c -0.97673,1.01766 -2.93254,3.05076 -2.93254,3.05076 l 2.68927,1.81409 c 0,0 0.97055,-1.26812 1.5362,-1.8281 0.36543,-0.36175 0.70609,-0.80925 1.19095,-0.98045 0.23761,-0.0839 0.50517,-0.0176 0.75591,0.007 0.1752,0.0176 0.35075,0.15234 0.51876,0.0997 3.80484,-1.19389 5.59422,-5.68487 8.35338,-8.56396 0.77114,-0.80466 1.32568,-1.87907 2.29205,-2.43428 0.87107,-0.50047 1.94179,-0.5368 2.93618,-0.67969 1.60936,-0.23126 3.25735,-0.0716 4.8695,-0.28252 2.07662,-0.2717 4.19856,-0.51443 6.15488,-1.26207 1.86701,-0.7135 3.5187,-1.90881 5.18008,-3.01995 2.08963,-1.39757 4.14908,-2.86845 5.99866,-4.57107 2.13427,-1.96471 3.97376,-4.23212 5.82836,-6.46274 1.61098,-1.9376 3.24328,-3.87605 4.59534,-6.002435 1.30759,-2.056467 2.42056,-4.243318 3.37164,-6.487041 0.63948,-1.50864 1.22598,-3.057703 1.55812,-4.662266 0.25292,-1.221852 0.36105,-2.482434 0.3204,-3.729526 -0.0577,-1.770035 -0.2216,-3.578203 -0.79851,-5.252579 -0.54471,-1.580934 -1.34504,-3.125999 -2.46097,-4.371291 -1.07889,-1.203954 -2.52473,-2.047087 -3.94096,-2.82671 -0.8301,-0.456964 -1.70408,-0.890986 -2.63543,-1.065566 -1.3161,-0.246705 -2.69594,-0.165556 -4.01673,0.05476 -1.93551,0.322849 -3.80958,1.017421 -5.59359,1.83462 -2.32065,1.063035 -4.52666,2.407548 -6.5595,3.951281 -1.89825,1.441532 -3.54346,3.194683 -5.19874,4.909735 -2.09381,2.169402 -4.10652,4.424516 -5.97338,6.792041 -1.33895,1.698042 -2.56074,3.488249 -3.73792,5.302187 -1.68662,2.598919 -3.32808,5.236111 -4.75671,7.98531 -1.18052,2.27175 -2.27798,4.59859 -3.14057,7.00908 -0.69113,1.93135 -1.1904,3.93115 -1.61798,5.93739 -0.43455,2.03891 -0.73306,4.10775 -0.95891,6.18019 -0.12815,1.17588 -0.15237,2.36081 -0.22402,3.54149 -0.0793,1.30626 -0.22934,2.61074 -0.2278,3.91943 0.004,3.36283 0.21273,6.73073 0.60908,10.07013 0.28141,2.37104 0.63543,4.74618 1.25319,7.05255 0.72205,2.6957 1.7793,5.2951 2.85156,7.8716 0.86062,2.06799 1.77918,4.1196 2.86933,6.07632 0.79083,1.41947 1.71611,2.76192 2.65276,4.0897 0.7373,1.04518 1.55422,2.03185 2.33231,3.04702 0.7302,0.9527 1.32817,2.02369 2.19245,2.85666 0.31772,0.30621 0.64624,0.68124 1.07914,0.76668 0.52465,0.10357 1.09394,-0.10535 1.56281,-0.36253 0.41008,-0.22494 0.72474,-0.60561 1.00196,-0.98232 1.25237,-1.7018 1.99196,-3.72907 2.89079,-5.64131 0.92196,-1.96143 1.61133,-4.02828 2.56334,-5.9753 1.00596,-2.05736 2.02578,-4.12553 3.31972,-6.01506 1.27724,-1.86511 2.79715,-3.56 4.35117,-5.20162 1.27123,-1.34288 2.60423,-2.63883 4.05369,-3.78707 0.98611,-0.7812 2.01963,-1.5213 3.13918,-2.09517 0.66109,-0.33885 1.36686,-0.59905 2.08671,-0.78258 0.50936,-0.12986 1.03731,-0.26102 1.56143,-0.2208 0.39256,0.0302 0.81988,0.10012 1.1306,0.34193 0.18971,0.14765 0.30868,0.38597 0.37187,0.61792 0.0953,0.34949 0.0352,0.72732 -0.011,1.08663 -0.26634,2.08785 -0.96964,4.09723 -1.52538,6.12731 -0.76598,2.79803 -1.75181,5.53357 -2.49223,8.33848 -0.76951,2.91516 -1.46027,5.85383 -2.02447,8.81559 -0.39886,2.09382 -0.85839,4.19286 -0.96029,6.3219 -0.12751,2.66416 -0.0557,5.36889 0.44069,7.9895 0.37172,1.96225 1.03919,3.87744 1.88093,5.68854 0.67404,1.4503 1.51212,2.83932 2.511,4.08829 0.91141,1.1396 1.95413,2.19836 3.13546,3.05498 0.64435,0.46723 1.371,0.82566 2.11528,1.10767 0.83232,0.31537 1.70266,0.66391 2.59239,0.63989 0.31367,-0.009 0.68769,-0.0439 0.90044,-0.27458 0.26178,-0.28379 0.24712,-0.74544 0.24745,-1.13154 2e-4,-0.3553 -0.14688,-0.6953 -0.22593,-1.04171 -0.26001,-1.13955 -0.66112,-2.25162 -0.81677,-3.41003 -0.30017,-2.23402 -0.34239,-4.50823 -0.21659,-6.75881 0.0922,-1.65011 0.4101,-3.28169 0.71005,-4.90691 0.64022,-3.46897 1.5808,-6.87599 2.32288,-10.32461 0.55358,-2.57266 1.27007,-5.12096 1.5885,-7.73317 0.31648,-2.5963 0.3874,-5.2258 0.31384,-7.84028 -0.0544,-1.9315 -0.11015,-3.89009 -0.55714,-5.76995 -0.31389,-1.32017 -0.85724,-2.58603 -1.47443,-3.79453 -0.45495,-0.89082 -0.8826,-1.85417 -1.62879,-2.52034 -0.80918,-0.72241 -1.87642,-1.13369 -2.91513,-1.44633 -0.92597,-0.27869 -1.9118,-0.37537 -2.87865,-0.35924 -1.13388,0.0189 -2.26181,0.25086 -3.36,0.53374 -0.83003,0.21383 -1.64348,0.50745 -2.41839,0.87382 -1.61647,0.76426 -3.15013,1.71009 -4.6103,2.74209 -1.45082,1.02535 -2.79337,2.20189 -4.09718,3.40866 -1.35708,1.25606 -2.70094,2.5424 -3.86655,3.97792 -1.08208,1.33264 -1.98987,2.80172 -2.87722,4.27122 -1.08515,1.79707 -2.03182,3.67513 -2.98435,5.54588 -0.50509,0.992 -0.94486,2.01628 -1.44726,3.00964 -0.21617,0.42744 -0.44079,0.85072 -0.67406,1.26907 -0.12367,0.2218 -0.18313,0.50296 -0.3845,0.65768 -0.18185,0.1397 -0.44338,0.2474 -0.66328,0.18243 -0.22454,-0.0663 -0.34928,-0.32217 -0.4673,-0.52437 -1.33828,-2.29289 -1.85526,-4.98163 -2.57138,-7.53809 -0.52761,-1.88348 -0.93026,-3.80278 -1.26627,-5.72969 -0.45341,-2.60008 -0.77811,-5.22419 -1.00902,-7.85337 -0.33675,-3.83433 -0.47517,-7.68586 -0.54737,-11.53425 -0.0337,-1.79508 -0.0901,-3.59626 0.0533,-5.38591 0.20715,-2.58422 0.61523,-5.15609 1.16282,-7.69012 0.50678,-2.34516 1.15083,-4.66703 1.95853,-6.92628 1.14032,-3.18962 2.56235,-6.27749 4.06113,-9.315183 1.36256,-2.7616 2.81614,-5.48763 4.47418,-8.082605 1.39776,-2.187631 2.99609,-4.243114 4.59812,-6.285907 1.63635,-2.086571 3.20367,-4.254786 5.11597,-6.091787 1.37468,-1.320566 2.84408,-2.596821 4.52332,-3.498939 0.83807,-0.450227 1.76157,-0.776478 2.70231,-0.918245 0.84108,-0.126751 1.70726,-0.03741 2.55072,0.0725 0.78428,0.102193 1.61416,0.166357 2.30984,0.5426 0.56848,0.307448 1.02253,0.815372 1.40425,1.336879 0.41601,0.568332 0.68648,1.236868 0.92619,1.899137 0.45372,1.253512 0.77086,2.563402 0.95381,3.883886 0.19471,1.405385 0.32817,2.84671 0.1469,4.253892 -0.21778,1.690712 -0.8011,3.329742 -1.46596,4.899427 -0.74217,1.75226 -1.76497,3.377357 -2.78973,4.98082 -1.46605,2.293935 -3.07672,4.499395 -4.7904,6.614765 -2.09277,2.58331 -4.23831,5.15162 -6.68813,7.3992 -0.90993,0.83481 -1.92315,1.55528 -2.95163,2.23876 -1.4172,0.94182 -2.8722,1.84679 -4.41945,2.55497 -1.61254,0.73808 -3.29592,1.35481 -5.02572,1.74575 -1.79487,0.40564 -3.657,0.41345 -5.48691,0.6072 -0.85093,0.0901 -1.72617,0.0419 -2.55405,0.2582 -3.47168,0.90743 -7.49292,1.60882 -9.87036,4.29653 -0.60771,0.68702 -0.30914,1.85232 -0.7821,2.63823 -0.39046,0.64881 -1.07836,1.06347 -1.6222,1.59041 -0.67986,0.65874 -1.38166,1.29492 -2.05118,1.96418 -0.50431,0.50413 -0.98637,1.03004 -1.48016,1.54451 z"
       id="path951"
       sodipodi:nodetypes="accaaaaaaaaaaaaaaaaaaaaaaaaaaaaaaaaaaaaaaaaaaaaaaaaaaaaaaaaaaaaaaaaaaaaaaaaaaaaaaaaaaaaaaaaaaaaaaaaaaaaaaaaaaaaaaaaaaaaaaaaaa" />
  </g>
</svg>
