<svg class="secret-illustration secret-illustration-skull" xmlns="http://www.w3.org/2000/svg" height="25.8" width="36" viewBox="0 0 18 12.9">
    <path class="secret-illustration-fill" d="M10.6,0.7C10.5,0.9,10.3,1,10,1H9.7L7.3,0.8c-0.2,0-0.3,0-0.5-0.1C6.5,0.7,6.3,0.6,6,0.6l0,0 c-3.3,0-6,2.5-6,5.7l0,0.5c0,3.1,2.6,5.7,5.9,5.7c0.3,0,0.5,0,0.8-0.1c0.2,0,0.3,0,0.5-0.1l2.4-0.2h0.3c0.2,0,0.5,0.1,0.6,0.3 c0.3,0.4,0.8,0.6,1.3,0.5l1.6-0.5c0.7-0.2,1-0.9,0.8-1.5c-0.1-0.3,0-0.7,0.2-1l0.2-0.2c0.1-0.1,0.2-0.2,0.4-0.1c0.2,0,0.4,0,0.5,0 c1.8,0,2.5-1.4,2.5-3.1V6.4c0-1.7-0.7-3.1-2.5-3.1c-0.1,0-0.3,0-0.5,0c-0.1,0-0.3,0-0.4-0.1L14.4,3c-0.3-0.3-0.4-0.6-0.2-1 c0.2-0.6-0.1-1.3-0.8-1.5L11.8,0C11.4,0.1,10.9,0.3,10.6,0.7z M12.7,9.7c0,0.9-1,1.7-2.3,1.7c-0.1,0-0.3,0-0.4,0l-0.4-0.1 c-0.9-0.2-1.5-0.8-1.5-1.5c0-0.6,0-1.4,0.6-1.9c0.1,0,0.1-0.1,0.2-0.1c0,0,1.2-0.3,1.5-0.3c0.6,0,1,0.5,1.4,1 C12.3,8.8,12.7,9.2,12.7,9.7z M14.9,6c0,0.3-0.2,0.5-0.5,0.6h-0.1h0.1c0.3,0.1,0.5,0.3,0.5,0.6c0,0.3-0.4,0.6-0.9,0.6 c-0.3,0-0.6-0.1-0.8-0.3c-0.2-0.2-0.5-0.3-0.8-0.4L12.2,7h-0.1l0,0l-0.2-0.1c-0.3-0.1-0.3-0.5,0-0.6l0.6-0.2 c0.3-0.1,0.6-0.3,0.8-0.4c0.2-0.2,0.4-0.3,0.8-0.3C14.5,5.4,14.9,5.7,14.9,6z M12.7,3.6c0,0.5-0.5,0.9-0.9,1.3c-0.4,0.5-0.8,1-1.4,1 c-0.5,0-1.3-0.1-1.7-0.4C8.1,5,8.1,4.1,8.1,3.6c0-0.9,1-1.7,2.3-1.7C11.7,2,12.7,2.7,12.7,3.6z"></path>
  </svg>
