<?xml version="1.0" encoding="UTF-8" standalone="no"?>
<svg
   xmlns:dc="http://purl.org/dc/elements/1.1/"
   xmlns:cc="http://creativecommons.org/ns#"
   xmlns:rdf="http://www.w3.org/1999/02/22-rdf-syntax-ns#"
   xmlns:svg="http://www.w3.org/2000/svg"
   xmlns="http://www.w3.org/2000/svg"
   xmlns:sodipodi="http://sodipodi.sourceforge.net/DTD/sodipodi-0.dtd"
   xmlns:inkscape="http://www.inkscape.org/namespaces/inkscape"
   class="secret-box"
   width="225.60689"
   height="175.89778"
   viewBox="0 0 190.33819 148.39879"
   version="1.1"
   id="svg1462"
   sodipodi:docname="box.svg"
   inkscape:version="1.0.2 (e86c870879, 2021-01-15, custom)">
  <metadata
     id="metadata1468">
    <rdf:RDF>
      <cc:Work
         rdf:about="">
        <dc:format>image/svg+xml</dc:format>
        <dc:type
           rdf:resource="http://purl.org/dc/dcmitype/StillImage" />
      </cc:Work>
    </rdf:RDF>
  </metadata>
  <defs
     id="defs1466" />
  <sodipodi:namedview
     pagecolor="#ffffff"
     bordercolor="#666666"
     borderopacity="1"
     objecttolerance="10"
     gridtolerance="10"
     guidetolerance="10"
     inkscape:pageopacity="0"
     inkscape:pageshadow="2"
     inkscape:window-width="1858"
     inkscape:window-height="1057"
     id="namedview1464"
     showgrid="false"
     inkscape:zoom="1.4075844"
     inkscape:cx="-56.780312"
     inkscape:cy="1.4213844"
     inkscape:window-x="1974"
     inkscape:window-y="-8"
     inkscape:window-maximized="1"
     inkscape:current-layer="svg1462" />
  <g
     id="g1460"
     transform="translate(-689.13711,-243.80229)">
    <g
       class="secret-pigeon"
       id="g1458">
      <g
         id="g1448">
        <g
           id="g1438">
          <g
             id="g1350">
            <g
               id="g1340">
              <g
                 id="g1338">
                <g
                   id="g1336">
                  <path
                     fill="#fde1c0"
                     d="m 756.5,357.7 c 0,-1.3 -1.1,-2.4 -2.4,-2.4 -1.3,0 -2.4,1.1 -2.4,2.4 v 18.9 l -14.5,-1.2 c -1.3,-0.1 -2.4,0.9 -2.5,2.2 -0.1,1.3 0.9,2.4 2.2,2.5 l 5.3,0.4 -5.9,1.9 c -1.2,0.4 -1.9,1.7 -1.5,3 0.3,1 1.2,1.6 2.2,1.6 0.2,0 0.5,0 0.7,-0.1 l 9.5,-3.1 -2.1,2.6 c -0.8,1 -0.7,2.5 0.3,3.3 0.4,0.4 1,0.5 1.5,0.5 0.7,0 1.4,-0.3 1.8,-0.9 l 7.2,-8.8 c 0,0 0,0 0,-0.1 0,0 0.1,-0.1 0.1,-0.1 0,-0.1 0.1,-0.1 0.1,-0.2 0,0 0,-0.1 0.1,-0.1 0,-0.1 0.1,-0.1 0.1,-0.2 0,0 0,-0.1 0,-0.1 0,-0.1 0,-0.2 0.1,-0.2 0,0 0,-0.1 0,-0.1 0,-0.1 0,-0.2 0,-0.3 0,0 0,0 0,0 v -21.4 z"
                     id="path1334" />
                </g>
              </g>
            </g>
            <g
               id="g1348">
              <g
                 id="g1346">
                <g
                   id="g1344">
                  <path
                     fill="#fde1c0"
                     d="m 744.4,370.1 c 0.1,0 0.1,0 0.2,-0.1 0.1,0 0.1,-0.1 0.2,-0.1 0,0 0.1,0 0.1,-0.1 0.1,-0.1 0.2,-0.1 0.2,-0.2 0,0 0.1,0 0.1,-0.1 0.1,-0.1 0.2,-0.2 0.3,-0.3 0,0 0,-0.1 0,-0.1 0.1,-0.1 0.1,-0.2 0.2,-0.3 0,0 0,-0.1 0.1,-0.1 0,-0.1 0.1,-0.2 0.1,-0.2 0,-0.1 0,-0.1 0,-0.2 0,-0.1 0,-0.2 0,-0.3 0,0 0,-0.1 0,-0.1 0,-0.1 0,-0.1 0,-0.2 0,0 0,0 0,0 v -21.4 c 0,-1.3 -1.1,-2.4 -2.4,-2.4 -1.3,0 -2.4,1.1 -2.4,2.4 v 18.9 L 726.6,364 c -1.3,-0.1 -2.4,0.9 -2.5,2.2 -0.1,1.3 0.9,2.4 2.2,2.5 l 3.7,0.3 -3,0.8 c -1.3,0.3 -2,1.6 -1.7,2.9 0.3,1.1 1.2,1.7 2.3,1.7 0.2,0 0.4,0 0.6,-0.1 l 15.9,-4.3 c 0.2,0.1 0.2,0.1 0.3,0.1 z"
                     id="path1342" />
                </g>
              </g>
            </g>
          </g>
          <g
             opacity="0.41"
             id="g1368">
            <g
               id="g1358">
              <g
                 id="g1356">
                <g
                   id="g1354">
                  <path
                     fill="#f2654b"
                     d="m 756.5,354.1 c 0,-1.3 -1.1,-2.4 -2.4,-2.4 -1.3,0 -2.4,1.1 -2.4,2.4 v 24.5 l -14.5,-1.2 c -1.3,-0.1 -2.4,0.9 -2.5,2.2 -0.1,1.3 0.9,2.4 2.2,2.5 l 5.3,0.4 -5.9,1.9 c -1.2,0.4 -1.9,1.7 -1.5,3 0.3,1 1.2,1.6 2.2,1.6 0.2,0 0.5,0 0.7,-0.1 l 9.5,-3.1 -2.1,2.6 c -0.8,1 -0.7,2.5 0.3,3.3 0.4,0.4 1,0.5 1.5,0.5 0.7,0 1.4,-0.3 1.8,-0.9 l 7.2,-8.8 c 0,0 0,0 0,-0.1 0,0 0.1,-0.1 0.1,-0.1 0,-0.1 0.1,-0.1 0.1,-0.2 0,0 0,-0.1 0.1,-0.1 0,-0.1 0.1,-0.1 0.1,-0.2 0,0 0,-0.1 0,-0.1 0,-0.1 0,-0.2 0.1,-0.2 0,0 0,-0.1 0,-0.1 0,-0.1 0,-0.2 0,-0.3 0,0 0,0 0,0 v -27 z"
                     id="path1352" />
                </g>
              </g>
            </g>
            <g
               id="g1366">
              <g
                 id="g1364">
                <g
                   id="g1362">
                  <path
                     fill="#f2654b"
                     d="m 744.4,372.1 c 0.1,0 0.1,0 0.2,-0.1 0.1,0 0.1,-0.1 0.2,-0.1 0,0 0.1,0 0.1,-0.1 0.1,-0.1 0.2,-0.1 0.2,-0.2 0,0 0.1,0 0.1,-0.1 0.1,-0.1 0.2,-0.2 0.3,-0.3 0,0 0,-0.1 0,-0.1 0.1,-0.1 0.1,-0.2 0.2,-0.3 0,0 0,-0.1 0.1,-0.1 0,-0.1 0.1,-0.2 0.1,-0.2 0,-0.1 0,-0.1 0,-0.2 0,-0.1 0,-0.2 0,-0.3 0,0 0,-0.1 0,-0.1 0,-0.1 0,-0.1 0,-0.2 0,0 0,0 0,0 v -21.4 c 0,-1.3 -1.1,-2.4 -2.4,-2.4 -1.3,0 -2.4,1.1 -2.4,2.4 v 18.9 L 726.6,366 c -1.3,-0.1 -2.4,0.9 -2.5,2.2 -0.1,1.3 0.9,2.4 2.2,2.5 l 3.7,0.3 -3,0.8 c -1.3,0.3 -2,1.6 -1.7,2.9 0.3,1.1 1.2,1.7 2.3,1.7 0.2,0 0.4,0 0.6,-0.1 l 15.9,-4.3 c 0.2,0.1 0.2,0.1 0.3,0.1 z"
                     id="path1360" />
                </g>
              </g>
            </g>
          </g>
          <g
             id="g1436">
            <g
               id="g1376">
              <g
                 id="g1374">
                <g
                   id="g1372">
                  <path
                     fill="#fde1c0"
                     d="m 789.7,315.1 c 0,28.3 -14.5,42.4 -39.6,42.4 -25.1,0 -51,-14.1 -51,-42.4 0,-28.3 -0.7,-38.3 24.3,-38.3 25,0 66.3,10.1 66.3,38.3 z"
                     id="path1370" />
                </g>
              </g>
            </g>
            <g
               id="g1402">
              <g
                 id="g1384">
                <g
                   id="g1382">
                  <g
                     id="g1380">
                    <path
                       fill="#fde1c0"
                       d="m 699.6,317.9 v -41.6 c 0,-2.2 -1.9,-3.9 -4.1,-3.6 l -4.9,0.6 c -1.1,0.1 -1.9,-1.1 -1.2,-2 l 3.9,-5 c 1.7,-2.2 3.8,-3.9 6.3,-5.2 l 4.1,-2.1"
                       id="path1378" />
                  </g>
                </g>
              </g>
              <g
                 id="g1392">
                <g
                   id="g1390">
                  <g
                     id="g1388">
                    <circle
                       fill="#fde1c0"
                       cx="714.90002"
                       cy="260.29999"
                       r="16.5"
                       id="circle1386" />
                  </g>
                </g>
              </g>
              <g
                 id="g1400">
                <g
                   id="g1398">
                  <g
                     id="g1396">
                    <path
                       fill="#fde1c0"
                       d="m 731.4,260.3 0.9,5.3 c 1.5,9 6.4,17.1 13.6,22.6 l 14.9,11.4 -35.1,20.4 -26.1,-16.3 2,-33.6 z"
                       id="path1394" />
                  </g>
                </g>
              </g>
            </g>
            <g
               id="g1410">
              <g
                 id="g1408">
                <g
                   id="g1406">
                  <path
                     fill="#fde1c0"
                     d="m 762.9,284.2 15.8,6.2 c 7.2,2.8 16.2,14 25.5,11 l 32.1,-10.2 c 7.1,-2.3 14.5,-3.1 21.9,-2.5 v 0 c 7.5,0.6 14.5,3.7 19.9,8.9 v 0 c 1.8,1.7 1.5,4.6 -0.6,5.9 l -16.3,4.9 c -1.2,0.4 -1,2.1 0.3,2.1 l 12.7,0.7 c 1.9,-0.1 3.7,0.9 4.6,2.6 v 0 c 1.5,2.6 0.4,5.9 -2.3,7.2 v 0 c -0.5,0.3 -1.1,0.5 -1.6,0.7 -5.6,2.3 -11.7,3.1 -17.7,2.5 l -54.2,-5.5 -11.9,15.6 c -3.7,4.9 -8.2,9.4 -13.2,13.3 l -10.8,6.5 -26.3,-4.3"
                     id="path1404" />
                </g>
              </g>
            </g>
            <g
               opacity="0.41"
               id="g1418">
              <g
                 id="g1416">
                <g
                   id="g1414">
                  <path
                     fill="#f2654b"
                     d="m 717.2,267.5 c 0,3.2 -2.6,4.7 -5.7,4.7 -3.1,0 -5.7,-1.5 -5.7,-4.7 0,-3.2 2.6,-5.7 5.7,-5.7 3.1,0 5.7,2.5 5.7,5.7 z"
                     id="path1412" />
                </g>
              </g>
            </g>
            <g
               id="g1426">
              <g
                 id="g1424">
                <g
                   id="g1422">
                  <path
                     fill="#434243"
                     d="m 715.4,267.5 c 0,2.2 -1.7,2.4 -3.9,2.4 -2.2,0 -3.9,-0.2 -3.9,-2.4 0,-2.2 1.7,-3.9 3.9,-3.9 2.2,0 3.9,1.7 3.9,3.9 z"
                     id="path1420" />
                </g>
              </g>
            </g>
            <g
               id="g1434">
              <g
                 id="g1432">
                <g
                   id="g1430">
                  <path
                     fill="#fde1c0"
                     d="m 751.1,300.8 -6.7,13.2 c -4.5,8.9 -0.4,19.7 8.9,23.4 l 8.8,3.5 c 24.3,9.7 51.5,9.7 75.8,-0.1 l 13.8,-5.5 c 3.9,-1.6 3.5,-7.2 -0.5,-8.2 z"
                     id="path1428" />
                </g>
              </g>
            </g>
          </g>
        </g>
        <g
           id="g1446">
          <g
             id="g1444">
            <g
               id="g1442">
              <polygon
                 fill="#fde1c0"
                 points="751.2,371 750.4,362.9 758.3,362.9 757.4,371 758.3,378 750.4,378 "
                 id="polygon1440" />
            </g>
          </g>
        </g>
      </g>
      <g
         id="g1456">
        <g
           id="g1454">
          <g
             id="g1452">
            <rect
               x="750.20001"
               y="367.70001"
               fill="#f2654b"
               width="8.6999998"
               height="3.4000001"
               id="rect1450" />
          </g>
        </g>
      </g>
    </g>
  </g>
</svg>
